# xmcd
#
# Track frame offsets:
#	150
#	19387
#	34932
#	48417
#	62665
#	82300
#	95850
#	111802
#	133192
#	150707
#	166832
#	186590
#	202740
#
# Disc length: 2935
#
# Revision: 6
# Processed by: cddbd v1.5.1PL0 Copyright (c) Steve Scherf et al.
# Submitted via: audiograbber 1.83.01
# Normalized: r5:DSETVAR1,TSWAP
#
DISCID=ba0b750d
DTITLE=Various Artist - (Keith Whitley) A Tribute Album
DYEAR=1994
DGENRE=Country
TTITLE0=Alan Jackson - Don't Close Your Eyes
TTITLE1=Diamond Rio - Ten Feet Away
TTITLE2=Keith Whitley - I'm Gonna Hurt Her On The Radio
TTITLE3=Tracy Lawrence - I'm Over You
TTITLE4=Alison Krauss and Union Station - When You Say Nothing At All
TTITLE5=Keith Whitley - Charlotte's In North Carolina
TTITLE6=Keith Whitley and Lorrie Morgan - I Just Want You
TTITLE7=Daron Norwood - Little Boy Lost
TTITLE8=Ricky Skaggs and Shenandoah - All I Ever Loved Was You
TTITLE9=Joe Diffie - I'm No Stranger To The Rain
TTITLE10=Mark Chesnutt - I Never Go Aroung Mirrors
TTITLE11=Keith Whitley - The Comeback Kid
TTITLE12=Event - Various Artists - A Voice Still Rings True
EXTD=
EXTT0=
EXTT1=
EXTT2=
EXTT3=
EXTT4=
EXTT5=
EXTT6=
EXTT7=
EXTT8=
EXTT9=
EXTT10=
EXTT11=
EXTT12=
PLAYORDER=
